<!DOCTYPE svg PUBLIC "-//W3C//DTD SVG 1.1//EN" "http://www.w3.org/Graphics/SVG/1.1/DTD/svg11.dtd">
<svg xmlns="http://www.w3.org/2000/svg" xmlns:xlink="http://www.w3.org/1999/xlink" version="1.1" width="661px" height="196px" viewBox="-0.5 -0.5 661 196" style="background-color: rgb(255, 255, 255);"><defs/><g><rect x="480" y="105" width="180" height="90" fill="#ffffff" stroke="#000000" pointer-events="none"/><g fill="#000000" font-family="Helvetica" text-anchor="middle" font-size="12px"><text x="569.5" y="146.5">«SaaS»</text><text x="569.5" y="160.5">Persistenz</text></g><path d="M 637 112 L 653 112 L 653 132 L 637 132 L 637 128 L 633 128 L 633 124 L 637 124 L 637 120 L 633 120 L 633 116 L 637 116 Z" fill="#ffffff" stroke="#000000" stroke-miterlimit="10" pointer-events="none"/><path d="M 637 116 L 641 116 L 641 120 L 637 120 M 637 124 L 641 124 L 641 128 L 637 128" fill="none" stroke="#000000" stroke-miterlimit="10" pointer-events="none"/><path d="M 440 150 L 473.63 150" fill="none" stroke="#000000" stroke-miterlimit="10" pointer-events="none"/><path d="M 478.88 150 L 471.88 153.5 L 473.63 150 L 471.88 146.5 Z" fill="#000000" stroke="#000000" stroke-miterlimit="10" pointer-events="none"/><rect x="260" y="105" width="180" height="90" fill="#ffffff" stroke="#000000" pointer-events="none"/><g fill="#000000" font-family="Helvetica" text-anchor="middle" font-size="12px"><text x="349.5" y="146.5">«Baustein»</text><text x="349.5" y="160.5">Backend</text></g><path d="M 417 112 L 433 112 L 433 132 L 417 132 L 417 128 L 413 128 L 413 124 L 417 124 L 417 120 L 413 120 L 413 116 L 417 116 Z" fill="#ffffff" stroke="#000000" stroke-miterlimit="10" pointer-events="none"/><path d="M 417 116 L 421 116 L 421 120 L 417 120 M 417 124 L 421 124 L 421 128 L 417 128" fill="none" stroke="#000000" stroke-miterlimit="10" pointer-events="none"/><path d="M 180 105 L 220 105 L 220 150 L 253.63 150" fill="none" stroke="#000000" stroke-miterlimit="10" pointer-events="none"/><path d="M 258.88 150 L 251.88 153.5 L 253.63 150 L 251.88 146.5 Z" fill="#000000" stroke="#000000" stroke-miterlimit="10" pointer-events="none"/><rect x="0" y="60" width="180" height="90" fill="#ffffff" stroke="#000000" pointer-events="none"/><g fill="#000000" font-family="Helvetica" text-anchor="middle" font-size="12px"><text x="89.5" y="101.5">«Baustein»</text><text x="89.5" y="115.5">Frontend</text></g><path d="M 157 67 L 173 67 L 173 87 L 157 87 L 157 83 L 153 83 L 153 79 L 157 79 L 157 75 L 153 75 L 153 71 L 157 71 Z" fill="#ffffff" stroke="#000000" stroke-miterlimit="10" pointer-events="none"/><path d="M 157 71 L 161 71 L 161 75 L 157 75 M 157 79 L 161 79 L 161 83 L 157 83" fill="none" stroke="#000000" stroke-miterlimit="10" pointer-events="none"/><rect x="260" y="0" width="180" height="90" fill="#ffffff" stroke="#000000" pointer-events="none"/><g fill="#000000" font-family="Helvetica" text-anchor="middle" font-size="12px"><text x="349.5" y="41.5">«Baustein»</text><text x="349.5" y="55.5">Forecast</text></g><path d="M 417 7 L 433 7 L 433 27 L 417 27 L 417 23 L 413 23 L 413 19 L 417 19 L 417 15 L 413 15 L 413 11 L 417 11 Z" fill="#ffffff" stroke="#000000" stroke-miterlimit="10" pointer-events="none"/><path d="M 417 11 L 421 11 L 421 15 L 417 15 M 417 19 L 421 19 L 421 23 L 417 23" fill="none" stroke="#000000" stroke-miterlimit="10" pointer-events="none"/><path d="M 180 105 L 220 105 L 220 45 L 253.63 45" fill="none" stroke="#000000" stroke-miterlimit="10" pointer-events="none"/><path d="M 258.88 45 L 251.88 48.5 L 253.63 45 L 251.88 41.5 Z" fill="#000000" stroke="#000000" stroke-miterlimit="10" pointer-events="none"/></g></svg>